<?xml version="1.0" standalone="no"?>
<!DOCTYPE svg PUBLIC "-//W3C//DTD SVG 1.1//EN" "http://www.w3.org/Graphics/SVG/1.1/DTD/svg11.dtd" >
<svg xmlns="http://www.w3.org/2000/svg">
<metadata></metadata>
<defs>
<font id="suburga_4regular" horiz-adv-x="1013" >
<font-face units-per-em="2048" ascent="1638" descent="-410" />
<missing-glyph horiz-adv-x="507" />
<glyph horiz-adv-x="0" />
<glyph horiz-adv-x="682" />
<glyph unicode=" "  horiz-adv-x="507" />
<glyph unicode="&#x09;" horiz-adv-x="507" />
<glyph unicode="&#xa0;" horiz-adv-x="507" />
<glyph unicode="!" horiz-adv-x="563" d="M168 0v252h227v-252h-227zM186 1421h191v-448l-43 -590h-105l-28 393q-15 196 -15 645z" />
<glyph unicode="&#x22;" horiz-adv-x="614" d="M90 881v555h139v-555h-139zM385 881v555h139v-555h-139z" />
<glyph unicode="#" horiz-adv-x="1574" d="M88 449l53 147h310l92 262h-330l51 146h332l162 454h166l-162 -454h256l164 454h164l-160 -454h301l-51 -146h-303l-93 -262h322l-51 -147h-322l-162 -453h-165l161 453h-258l-162 -453h-165l159 453h-309zM616 594h261l92 264h-260z" />
<glyph unicode="$" d="M57 1061q0 168 107.5 267t281.5 99v152h109v-160q101 -24 178 -98v94h148v-371h-150v103q-67 91 -176 129v-451l100 -30q297 -88 297 -398q0 -180 -110 -293q-108 -114 -287 -114v-168h-109v176q-115 21 -215 108v-88h-161v431h161v-130q80 -120 215 -161v510 q-193 63 -272 127q-117 94 -117 266zM225 1079q0 -93 66 -153q47 -42 155 -76v440q-221 -21 -221 -211zM555 150q229 27 229 239q0 200 -229 264v-503z" />
<glyph unicode="%" horiz-adv-x="1460" d="M53 1034q0 163 58 273q74 139 221 139q142 0 219 -141q57 -111 57 -271q0 -162 -57 -270q-76 -143 -219 -143q-146 0 -219 141q-60 117 -60 272zM199 1034q0 -98 24 -174q34 -110 107 -110q74 0 108 108q25 80 25 176q0 94 -25 174q-35 109 -108 109q-72 0 -107 -109 q-24 -76 -24 -174zM225 -29l869 1475h139l-868 -1475h-140zM850 383q0 161 57 272q74 142 219 142q149 0 220 -142q57 -108 57 -272q0 -162 -57 -270q-74 -142 -220 -142q-145 0 -219 142q-57 108 -57 270zM993 383q0 -94 25 -174q35 -109 108 -109q74 0 109 109 q25 80 25 174q0 92 -23 176q-35 109 -111 109q-133 0 -133 -285z" />
<glyph unicode="&#x26;" horiz-adv-x="1449" d="M92 436q0 304 314 451q-76 180 -76 252q0 140 88.5 223.5t232.5 83.5q148 0 236 -76q94 -82 94 -227q0 -217 -301 -328l285 -383q72 141 114 330h287v-178h-156q-58 -196 -133 -301l86 -113h203v-170h-313l-97 129q-172 -158 -385 -158q-205 0 -342 131t-137 334z M295 465q0 -126 90 -219q92 -92 217 -92q133 0 254 112l-352 475q-209 -77 -209 -276zM506 1151q0 -75 74 -199q225 70 225 199q0 63 -44 103t-110 40t-105.5 -38.5t-39.5 -104.5z" />
<glyph unicode="'" horiz-adv-x="317" d="M90 881v555h139v-555h-139z" />
<glyph unicode="(" horiz-adv-x="768" d="M211 563q0 310 115 537q134 260 409 346v-131q-327 -184 -327 -752q0 -570 327 -751v-134q-268 85 -405 349q-119 226 -119 536z" />
<glyph unicode=")" horiz-adv-x="768" d="M39 -190q328 184 328 751q0 579 -328 754v131q276 -89 410 -346q114 -225 114 -537q0 -316 -114 -536q-134 -260 -410 -349v132z" />
<glyph unicode="*" horiz-adv-x="919" d="M119 1147l47 139l235 -94l-16 254h147l-16 -254l238 94l45 -139l-248 -64l164 -196l-119 -86l-137 215l-135 -215l-119 86l162 196z" />
<glyph unicode="+" horiz-adv-x="1705" d="M254 541v139h528v541h142v-541h528v-139h-528v-541h-142v541h-528z" />
<glyph unicode="," horiz-adv-x="507" d="M123 -172q76 16 96 57q17 34 17 115h-109v252h231v-252q0 -125 -53 -199q-62 -86 -182 -86v113z" />
<glyph unicode="-" horiz-adv-x="667" d="M86 422v176h498v-176h-498z" />
<glyph unicode="." horiz-adv-x="507" d="M135 0v252h238v-252h-238z" />
<glyph unicode="/" horiz-adv-x="626" d="M-53 -190l551 1636h127l-551 -1636h-127z" />
<glyph unicode="0" d="M70 709q0 284 80 473q111 264 356 264q251 0 362 -270q78 -197 78 -488q0 -272 -84 -463q-114 -254 -356 -254q-245 0 -356 265q-80 189 -80 473zM262 719q0 -207 39 -346q62 -232 207 -232q141 0 203 221q41 146 41 334q0 598 -244 598q-146 0 -207 -229 q-39 -139 -39 -346z" />
<glyph unicode="1" d="M240 0v176h184v1071h-184v174h374v-1245h177v-176h-551z" />
<glyph unicode="2" d="M49 0v18q0 285 168 471q6 10 315 263q168 137 168 301q0 102 -57 166.5t-154 64.5q-235 0 -235 -389h-178q-2 12 -2 57q0 225 104 353q114 141 332 141q178 0 285.5 -108t107.5 -287q0 -169 -115 -299q-63 -70 -247 -201q-169 -122 -232 -221q-57 -86 -57 -154h483v326 h176v-502h-862z" />
<glyph unicode="3" d="M57 473h183q0 -144 53 -233q67 -113 201 -113q109 0 179 76t70 188q0 135 -88 211q-82 70 -213 70q-34 0 -71 -6v165q331 0 331 240q0 101 -55.5 160t-154.5 59q-220 0 -220 -301h-176v35q0 194 102.5 308t288.5 114q177 0 287 -94q119 -101 119 -275q0 -227 -221 -319 q136 -50 198 -135.5t62 -225.5q0 -198 -125 -311q-127 -115 -322 -115q-215 0 -327 148q-101 131 -101 354z" />
<glyph unicode="4" d="M29 561l557 885h176v-885h201v-158h-201v-227h137v-176h-467v176h160v227h-488q-13 93 -75 158zM199 561h393l8 647z" />
<glyph unicode="5" d="M51 465h187q0 -320 231 -320q127 0 197 99q61 88 61 219q0 132 -59 209q-66 84 -193 84q-166 0 -242 -162l-135 106l76 721h676v-383h-166v209h-383l-41 -407q119 90 258 90q196 0 305 -133q99 -126 99 -326q0 -215 -115 -354q-128 -146 -338 -146q-418 0 -418 494z" />
<glyph unicode="6" d="M72 672q0 309 86 504q120 270 391 270q381 0 381 -412h-168q0 260 -215 260q-281 0 -281 -526q155 137 309 137q182 0 285 -145q88 -125 88 -318q0 -205 -110 -333q-117 -138 -318 -138q-252 0 -366 240q-82 174 -82 461zM264 524q0 -155 55 -256q71 -129 211 -129 q121 0 189 92q57 80 57 209t-53 209q-61 94 -186 94q-136 0 -271 -147q-2 -16 -2 -72z" />
<glyph unicode="7" d="M86 1032v389h862v-143q-377 -585 -377 -1102h152v-176h-520v176h166q0 269 112 559q81 212 258 512h-491v-215h-162z" />
<glyph unicode="8" d="M57 381q0 288 240 371q-209 77 -209 323q0 169 127 275q122 96 293 96t293 -96q127 -106 127 -275q0 -240 -209 -323q239 -82 239 -371q0 -185 -135 -299q-126 -111 -315 -111q-188 0 -315 109q-136 115 -136 301zM252 406q0 -106 74 -183q73 -76 180 -76q108 0 182 74 q74 77 74 185q0 107 -76 180q-73 76 -180 76t-180 -76q-74 -74 -74 -180zM274 1065q0 -96 67.5 -162.5t164.5 -66.5q99 0 166 65.5t67 163.5t-67 163.5t-166 65.5q-97 0 -164.5 -66.5t-67.5 -162.5z" />
<glyph unicode="9" d="M59 975q0 205 111 334q116 137 317 137q449 0 449 -698q0 -777 -494 -777q-186 0 -278 117q-86 106 -86 295h168q0 -260 215 -260q280 0 280 526q-144 -135 -309 -135q-182 0 -285 145q-88 125 -88 316zM231 979q0 -126 56 -209q66 -96 186 -96q139 0 270 149q2 16 2 72 q0 157 -55 258q-71 127 -211 127q-117 0 -184 -94q-64 -85 -64 -207z" />
<glyph unicode=":" horiz-adv-x="555" d="M158 0v252h237v-252h-237zM158 750v249h237v-249h-237z" />
<glyph unicode=";" horiz-adv-x="555" d="M156 -172q76 16 96 57q16 32 16 115h-108v252h231v-252q0 -285 -235 -285v113zM156 750v249h237v-249h-237z" />
<glyph unicode="&#x3c;" horiz-adv-x="1705" d="M264 547v129l1178 483v-153l-969 -396l969 -393v-154z" />
<glyph unicode="=" horiz-adv-x="1705" d="M254 342v139h1198v-139h-1198zM254 739v140h1198v-140h-1198z" />
<glyph unicode="&#x3e;" horiz-adv-x="1705" d="M264 63v154l971 393l-971 396v153l1178 -483v-129z" />
<glyph unicode="?" horiz-adv-x="958" d="M47 1010v24q0 189 111.5 300.5t300.5 111.5q175 0 291 -98q122 -104 122 -277q0 -171 -103.5 -274.5t-283.5 -122.5l-18 -271h-111l-24 441q37 -13 71 -13q125 0 200 61.5t75 176.5q0 98 -62 158.5t-161 60.5q-226 0 -226 -278h-182zM299 0v252h227v-252h-227z" />
<glyph unicode="@" horiz-adv-x="2048" d="M106 522q0 416 300 684q291 260 710 260q330 0 565 -174q263 -195 263 -512q0 -258 -150 -452q-163 -211 -414 -211q-105 0 -152.5 40t-47.5 136q-101 -174 -301 -174q-314 0 -314 332q0 218 127 378q138 175 350 175q172 0 242 -150l57 115h132l-146 -576q-8 -31 -8 -59 q0 -94 100 -94q42 0 103 28q133 68 207 207q69 126 69 287q0 279 -211 438q-189 143 -479 143q-366 0 -608 -227q-250 -235 -250 -596q0 -330 227 -520q214 -178 551 -178q343 0 621 190l55 -82q-296 -223 -664 -223q-396 0 -653 205q-281 227 -281 610zM725 446 q0 -219 186 -219q118 0 193 84q54 60 94 193q24 102 51 207q-40 184 -198 184q-154 0 -246 -154q-80 -133 -80 -295z" />
<glyph unicode="A" horiz-adv-x="1294" d="M-57 0v184h163l371 1063h-184v174h711v-174h-175l367 -1063h154v-184h-533v184h172l-110 320h-480l-108 -320h160v-184h-508zM461 676h356l-176 528z" />
<glyph unicode="B" horiz-adv-x="1224" d="M41 0v184h168v1063h-168v174h571q439 0 439 -362q0 -211 -213 -303q290 -82 290 -355q0 -401 -489 -401h-598zM412 178h198q130 0 213 53q95 62 95 187q0 241 -338 241h-168v-481zM412 825h149q287 0 287 205q0 217 -275 217h-161v-422z" />
<glyph unicode="C" horiz-adv-x="1540" d="M70 709q0 323 196 528q197 209 516 209q302 0 459 -207v182h174v-456h-188q-123 292 -430 292q-232 0 -373 -159q-135 -150 -135 -387q0 -230 129 -383q138 -166 362 -166q183 0 320 119q128 113 186 292l176 -104q-72 -235 -252 -366.5t-428 -131.5q-315 0 -516 213 q-196 205 -196 525z" />
<glyph unicode="D" horiz-adv-x="1464" d="M35 0v184h174v1063h-174v174h657q336 0 519.5 -186t183.5 -524q0 -337 -185 -525q-183 -186 -518 -186h-657zM412 186h262q495 0 495 531q0 244 -110 381q-119 149 -359 149h-288v-1061z" />
<glyph unicode="E" horiz-adv-x="1300" d="M41 0v184h168v1063h-168v174h1161v-422h-172v248h-618v-432h553v-170h-553v-461h618v271h172v-455h-1161z" />
<glyph unicode="F" horiz-adv-x="1157" d="M41 0v184h168v1063h-168v174h1079v-422h-170v248h-538v-432h475v-170h-475v-461h186v-184h-557z" />
<glyph unicode="G" horiz-adv-x="1560" d="M72 709q0 321 198 528q200 209 518 209q155 0 259 -43q113 -49 202 -164v182h172v-456h-186q-123 292 -432 292q-238 0 -375 -155q-139 -154 -139 -391q0 -249 143 -398q145 -151 389 -151q180 0 295 86q126 92 144 264h-261v176h488q2 -14 2 -59q0 -308 -199 -486 q-190 -172 -502 -172q-318 0 -518 209q-198 207 -198 529z" />
<glyph unicode="H" horiz-adv-x="1441" d="M41 0v184h168v1063h-168v174h547v-174h-176v-401h616v401h-174v174h547v-174h-168v-1063h168v-184h-547v184h174v492h-616v-492h176v-184h-547z" />
<glyph unicode="I" horiz-adv-x="620" d="M41 0v184h168v1063h-168v174h541v-174h-170v-1063h170v-184h-541z" />
<glyph unicode="J" horiz-adv-x="616" d="M-66 -131q62 -16 95 -16q130 0 164 106q16 50 16 219v1069h-168v174h541v-174h-170v-1149q0 -202 -64 -303q-80 -127 -268 -127q-96 0 -146 13v188z" />
<glyph unicode="K" horiz-adv-x="1236" d="M41 0v184h168v1063h-168v174h541v-174h-170v-491l483 491h-156v174h531v-174h-146l-460 -481l466 -582h168v-184h-557v184h142l-471 572v-572h170v-184h-541z" />
<glyph unicode="L" horiz-adv-x="1208" d="M41 0v184h168v1063h-168v174h541v-174h-170v-1063h512v482h172v-666h-1055z" />
<glyph unicode="M" horiz-adv-x="1863" d="M41 0v184h172v1063h-172v174h502l391 -1009l401 1009h488v-174h-174v-1063h174v-184h-557v184h172v1065l-508 -1249h-41l-496 1266v-1082h203v-184h-555z" />
<glyph unicode="N" horiz-adv-x="1523" d="M35 0v184h174v1063h-174v174h452l643 -1108v934h-174v174h562v-174h-205v-1247h-232l-690 1192v-1008h174v-184h-530z" />
<glyph unicode="O" horiz-adv-x="1564" d="M70 709q0 318 196 526q199 211 516 211q324 0 521 -209q190 -202 190 -528q0 -320 -195 -527q-199 -211 -516 -211q-315 0 -516 213q-196 205 -196 525zM289 711q0 -230 129 -383q138 -166 362 -166q227 0 365 164q129 156 129 385q0 230 -129 383q-136 161 -365 161 q-226 0 -362 -161q-129 -153 -129 -383z" />
<glyph unicode="P" horiz-adv-x="1230" d="M41 0v184h168v1063h-168v174h571q254 0 387 -86q158 -109 158 -348q0 -306 -244 -395q-127 -47 -501 -47v-361h170v-184h-541zM412 715h170q169 0 252 47q106 60 106 219q0 160 -104 221q-77 45 -254 45h-170v-532z" />
<glyph unicode="Q" horiz-adv-x="1564" d="M70 709q0 319 198 526q199 211 514 211q323 0 521 -207q190 -202 190 -530q0 -280 -152 -476q-154 -202 -428 -249q171 -60 256 -60q39 0 91 10l-58 -182q-23 -10 -69 -10q-91 0 -240 63q-149 64 -211 64q-72 0 -154 -55l-69 100q53 65 135 80q-245 58 -387 262 q-137 192 -137 453zM289 711q0 -230 129 -383q138 -166 362 -166q227 0 365 164q129 156 129 385q0 230 -129 383q-136 161 -365 161q-226 0 -362 -161q-129 -153 -129 -383z" />
<glyph unicode="R" horiz-adv-x="1222" d="M41 0v184h168v1063h-168v174h608q461 0 461 -362q0 -137 -73 -231.5t-206 -125.5l242 -518h158v-184h-285l-321 684h-213v-500h170v-184h-541zM412 840h161q324 0 324 200q0 126 -96 179q-68 36 -213 36h-176v-415z" />
<glyph unicode="S" horiz-adv-x="1124" d="M102 1061q0 169 113 276q115 109 281 109q177 0 311 -119v94h166v-407h-168v104q-124 154 -291 154q-91 0 -149 -49q-64 -52 -64 -144q0 -79 39.5 -122.5t138.5 -79.5l262 -93q140 -58 209 -139q84 -101 84 -258q0 -194 -118.5 -305t-317.5 -111q-182 0 -313 119v-90 h-181v487h181v-127q114 -206 311 -206q104 0 168.5 60.5t64.5 162.5q0 159 -188 239l-350 129q-189 103 -189 316z" />
<glyph unicode="T" horiz-adv-x="1261" d="M76 870v551h1108v-551h-170v377h-283v-1063h172v-184h-545v184h170v1063h-280v-377h-172z" />
<glyph unicode="U" horiz-adv-x="1476" d="M25 1247v174h557v-174h-172v-760q0 -329 301 -329q309 0 309 329v760h-174v174h543v-174h-172v-659q0 -308 -99 -449q-119 -168 -411 -168q-288 0 -408 170q-100 141 -100 447v659h-174z" />
<glyph unicode="V" horiz-adv-x="1269" d="M-70 1247v174h527v-174h-150l336 -977l336 977h-166v174h526v-174h-178l-428 -1247h-213l-426 1247h-164z" />
<glyph unicode="W" horiz-adv-x="1849" d="M-37 1247v174h526v-174h-178l246 -952l231 952h-178v174h641v-174h-176l246 -952l231 952h-178v174h520v-174h-178l-309 -1247h-188l-301 1126l-277 -1126h-188l-338 1247h-152z" />
<glyph unicode="X" horiz-adv-x="1228" d="M-29 0v184h164l365 527l-353 536h-176v174h543v-174h-119l228 -352l233 352h-162v174h523v-174h-154l-336 -510l367 -553h170v-184h-570v184h154l-244 371l-246 -371h156v-184h-543z" />
<glyph unicode="Y" horiz-adv-x="1110" d="M-113 1247v174h566v-174h-154l268 -422l277 422h-178v174h555v-174h-174l-394 -596v-467h185v-184h-576v184h187v467l-390 596h-172z" />
<glyph unicode="Z" horiz-adv-x="1114" d="M43 0v180l723 1067h-512v-248h-170v422h934v-174l-725 -1067h584v266h172v-446h-1006z" />
<glyph unicode="[" horiz-adv-x="768" d="M266 -299v1720h473v-141h-284v-1436h284v-143h-473z" />
<glyph unicode="\" horiz-adv-x="626" d="M-10 1446h127l551 -1636h-127z" />
<glyph unicode="]" horiz-adv-x="768" d="M29 -156h284v1436h-284v141h473v-1720h-473v143z" />
<glyph unicode="^" horiz-adv-x="2048" d="M420 901l510 557h186l510 -557h-180l-422 420l-424 -420h-180z" />
<glyph unicode="_" horiz-adv-x="1024" d="M0 -340h1024v-143h-1024v143z" />
<glyph unicode="`" horiz-adv-x="1024" d="M250 1483h201l204 -348h-120z" />
<glyph unicode="a" horiz-adv-x="1050" d="M59 289q0 154 103 243q96 84 252 84q101 0 284 -71v59q0 262 -211 262q-147 0 -241 -129l-174 45q102 242 430 242q211 0 299 -104q78 -96 78 -312v-432h151v-176h-325v94q-144 -123 -318 -123q-148 0 -238 86t-90 232zM256 295q0 -63 51 -102q46 -37 113 -37 q112 0 285 123v73q-153 90 -256 90q-78 0 -130 -34q-63 -40 -63 -113z" />
<glyph unicode="b" horiz-adv-x="1208" d="M31 0v176h143v1079h-143v166h319v-571q162 149 340 149q214 0 338 -151q113 -140 113 -363q0 -218 -115 -360q-124 -154 -336 -154q-186 0 -334 148v-119h-325zM356 489q0 -145 74 -237q80 -102 221 -102q150 0 226 98q69 87 69 241q0 152 -69 242q-76 98 -226 98 q-148 0 -223 -100q-72 -90 -72 -240z" />
<glyph unicode="c" horiz-adv-x="1095" d="M66 498q0 223 129 370q135 156 354 156q170 0 295 -113v88h160v-372h-160q-58 223 -266 223q-152 0 -234 -102q-76 -94 -76 -248q0 -151 78 -244q81 -100 229 -100q211 0 316 200l158 -77q-55 -142 -184 -225t-290 -83q-231 0 -370 148t-139 379z" />
<glyph unicode="d" horiz-adv-x="1208" d="M70 485q0 222 112 361q120 153 336 153q188 0 340 -149v405h-143v166h319v-1245h144v-176h-326v119q-154 -148 -334 -148q-212 0 -336 154q-112 139 -112 360zM262 489q0 -147 74 -239q78 -100 223 -100q137 0 219 102q74 95 74 237q0 149 -70 240q-75 100 -223 100 q-144 0 -220.5 -93t-76.5 -247z" />
<glyph unicode="e" horiz-adv-x="1120" d="M66 498q0 229 135 376q138 150 364 150q249 0 375 -170q111 -150 111 -408h-785q0 -129 90 -210q89 -80 224 -80q97 0 182.5 47t134.5 129l158 -82q-156 -279 -477 -279q-233 0 -373 146q-139 148 -139 381zM283 594h567q-27 264 -285 264q-122 0 -196 -70t-86 -194z" />
<glyph unicode="f" horiz-adv-x="555" d="M27 0v176h151v658h-151v165h151q0 213 25 293q50 154 217 154q221 0 248 -242l-162 -22q-18 104 -78 104q-74 0 -74 -182q0 -21 2 -62.5t2 -42.5h166v-165h-166v-658h166v-176h-497z" />
<glyph unicode="g" horiz-adv-x="1208" d="M66 498q0 216 114 354q123 147 336 147q183 0 340 -145v145h320v-165h-144v-639q0 -142 -12 -213q-27 -167 -160 -256q-119 -82 -293 -82q-225 0 -393 125l113 131q133 -103 284 -103q165 0 230 103q49 79 49 256q-125 -162 -334 -162q-214 0 -336 149q-114 138 -114 355 zM260 496q0 -147 74 -236q81 -96 223 -96t221 98q72 90 72 234q0 147 -72 237q-78 96 -221 96t-220 -90.5t-77 -242.5z" />
<glyph unicode="h" horiz-adv-x="1103" d="M33 0v176h143v1079h-143v166h323v-569q182 147 336 147t207 -108q35 -75 35 -248v-467h147v-176h-327v569q0 141 -9 176q-21 95 -118 95q-126 0 -271 -154v-510h146v-176h-469z" />
<glyph unicode="i" horiz-adv-x="536" d="M39 0v176h141v658h-141v165h321v-823h148v-176h-469zM139 1305q0 51 33.5 83.5t83.5 32.5q47 0 83 -35.5t36 -80.5q0 -49 -34.5 -84t-84.5 -35q-52 0 -84.5 33t-32.5 86z" />
<glyph unicode="j" horiz-adv-x="507" d="M-49 -186h12q7 0 34.5 -2t35.5 -2q139 0 139 170v854h-141v165h321v-1040q0 -219 -151 -287q-67 -28 -119 -28q-11 0 -131 10v160zM131 1305q0 51 34 83.5t85 32.5q44 0 80.5 -36t36.5 -80q0 -50 -34 -84.5t-83 -34.5q-51 0 -85 34.5t-34 84.5z" />
<glyph unicode="k" horiz-adv-x="1071" d="M33 0v176h143v1079h-143v166h323v-1245h146v-176h-469zM362 524l367 310h-131v165h459v-165h-117l-350 -295l342 -363h143v-176h-227z" />
<glyph unicode="l" horiz-adv-x="536" d="M33 0v176h143v1079h-143v166h323v-1245h146v-176h-469z" />
<glyph unicode="m" horiz-adv-x="1691" d="M35 0v176h145v658h-145v165h321v-153q194 153 344 153q180 0 230 -159q188 159 352 159q154 0 207 -108q35 -75 35 -248v-467h145v-176h-332v662q0 178 -125 178q-135 0 -268 -154v-510h146v-176h-332v659q0 181 -127 181q-124 0 -266 -154v-510h145v-176h-475z" />
<glyph unicode="n" horiz-adv-x="1110" d="M39 0v176h141v658h-141v165h313v-153q189 155 346 155q153 0 205 -110q35 -75 35 -248v-467h147v-176h-327v569q0 127 -10 172q-24 99 -117 99q-126 0 -271 -154v-510h148v-176h-469z" />
<glyph unicode="o" horiz-adv-x="1132" d="M66 498q0 229 135 376q138 150 364 150q232 0 367 -147q135 -144 135 -379q0 -232 -133 -377q-138 -150 -369 -150q-226 0 -366 152q-133 145 -133 375zM264 500q0 -150 74 -242q80 -102 227 -102q149 0 228 102q73 91 73 242q0 153 -71 245q-79 99 -230 99 q-148 0 -227 -101q-74 -89 -74 -243z" />
<glyph unicode="p" horiz-adv-x="1208" d="M31 -158h143v992h-143v165h319v-149q162 149 340 149q216 0 336 -153q113 -140 113 -361q0 -220 -113 -360q-121 -154 -336 -154q-186 0 -334 148v-277h191v-174h-516v174zM356 489q0 -144 72 -237q79 -102 221 -102q147 0 225 100q72 90 72 239t-72 242q-76 98 -225 98 q-148 0 -223 -100q-70 -91 -70 -240z" />
<glyph unicode="q" horiz-adv-x="1208" d="M70 485q0 222 112 361q122 155 336 155q183 0 340 -151v149h320v-165h-144v-992h144v-174h-516v174h190v277q-154 -148 -334 -148q-212 0 -336 154q-112 139 -112 360zM262 489q0 -147 74 -239q78 -100 223 -100q137 0 219 102q74 95 74 237q0 149 -70 240 q-75 100 -223 100q-144 0 -220.5 -93t-76.5 -247z" />
<glyph unicode="r" horiz-adv-x="737" d="M39 0v176h141v658h-141v165h313v-196q56 126 137 172q73 43 218 43h20q8 -2 18 -2v-193q-86 4 -96 4q-289 0 -289 -387v-264h179v-176h-500z" />
<glyph unicode="s" horiz-adv-x="954" d="M80 725q0 135 108 221q104 78 240 78q160 0 266 -100v75h154v-325h-154q0 94 -84 151q-71 47 -172 47q-172 0 -172 -129q0 -91 160 -129q276 -66 295 -73q160 -71 160 -246q0 -153 -109 -242q-101 -82 -258 -82q-159 0 -270 97v-68h-160v338h160q10 -100 80.5 -154.5 t179.5 -54.5q72 0 129 31q65 38 65 106q0 90 -159 131q-271 70 -299 84q-160 74 -160 244z" />
<glyph unicode="t" horiz-adv-x="559" d="M29 834v165h131v134l180 149v-283h186v-165h-186v-558q0 -65 10 -88q14 -38 70 -38q42 0 106 28v-174q-100 -33 -157 -33q-129 0 -176 80q-33 53 -33 195v588h-131z" />
<glyph unicode="u" horiz-adv-x="1103" d="M23 834v165h327v-618q0 -121 12 -162q27 -86 117 -86q129 0 271 154v547h-154v165h332v-823h143v-176h-315v127q-200 -156 -344 -156q-154 0 -207 111q-35 72 -35 248v504h-147z" />
<glyph unicode="v" horiz-adv-x="995" d="M-39 834v165h449v-165h-111l203 -568l219 568h-139v165h442v-165h-139l-320 -834h-155l-304 834h-145z" />
<glyph unicode="w" horiz-adv-x="1540" d="M-2 834v165h387v-165h-88l170 -558l182 558h-106v165h452v-165h-88l170 -558l183 558h-107v165h379v-165h-100l-304 -834h-143l-225 725l-242 -725h-141l-271 834h-108z" />
<glyph unicode="x" horiz-adv-x="1034" d="M4 0v176h137l269 320l-304 338h-81v165h417v-161h-114l194 -217l183 217h-127v161h393v-165h-86l-262 -318l305 -340h88v-176h-418v172h111l-199 221l-186 -221h120v-172h-440z" />
<glyph unicode="y" horiz-adv-x="1005" d="M-10 834v165h420v-165h-115l221 -558l215 558h-117v165h400v-165h-117l-448 -1166h-340v166h237l76 197l-320 803h-112z" />
<glyph unicode="z" horiz-adv-x="978" d="M53 0v195l615 651h-408v-215h-166v368h791v-190l-613 -645h437v211h176v-375h-832z" />
<glyph unicode="{" horiz-adv-x="1024" d="M168 457v149q10 -2 45 -2q137 0 190 68q48 63 48 200v246q0 118 12 170q22 97 88 137q82 52 315 52v-150q-155 0 -202 -47q-46 -46 -46 -260q0 -42 3 -100q2 -37 2 -64q0 -138 -31 -205q-44 -87 -170 -121q121 -30 168 -116q33 -65 33 -209q0 -27 -2 -66q-3 -55 -3 -96 q0 -210 48 -264q39 -45 200 -45v-148h-43q-190 0 -272 49q-68 39 -90 138q-10 58 -10 170v245q0 139 -50 201q-52 70 -190 70q-33 0 -43 -2z" />
<glyph unicode="|" horiz-adv-x="1024" d="M438 -483v2048h150v-2048h-150z" />
<glyph unicode="}" horiz-adv-x="1024" d="M160 -266q162 0 205 49t43 258q0 59 -2 98q-3 59 -3 66q0 138 31 205q43 85 170 120q-123 34 -168 119q-33 62 -33 207q0 7 3 66q2 39 2 98q0 210 -46 262q-39 45 -202 45v150h37q199 0 284 -54q63 -40 84 -137q10 -58 10 -168v-246q0 -137 48 -200q53 -68 190 -68 q35 0 45 2v-149q-10 2 -43 2q-138 0 -190 -70q-50 -62 -50 -201v-245q0 -115 -12 -170q-21 -93 -88 -138q-76 -49 -315 -49v148z" />
<glyph unicode="~" horiz-adv-x="1705" d="M178 451v155q206 144 387 144q107 0 299 -68q195 -68 279 -68q169 0 387 156v-156q-203 -141 -389 -141q-100 0 -289 68q-186 67 -289 67q-159 0 -385 -157z" />
<glyph horiz-adv-x="1851" d="M20 993l60 160h219q237 577 735 676q536 40 815 -258l-59 -160q-298 319 -756 260q-379 -120 -557 -497l1194 -21l-41 -119l-39 -41h-1153v-157h1112l-98 -160h-975q102 -317 537 -516q457 -79 776 258l-21 -240q-137 -119 -376 -178h-379q-236 58 -398 199 q-241 200 -317 477h-260l61 160h179v157h-259z" />
<glyph unicode="&#xa0;" />
<glyph unicode="&#xa1;" horiz-adv-x="563" d="M168 1171v250h227v-250h-227zM186 0v451l15 196l28 391h105l28 -391q15 -197 15 -647h-191z" />
<glyph unicode="&#xa2;" d="M43 510q0 198 111 348q122 168 311 168q101 0 125 -8l84 260h112l-94 -299q33 -17 86 -64v89h152v-365h-139q-41 140 -144 203l-215 -664q63 -14 121 -14q89 0 168 61q70 55 117 142l135 -70q-50 -141 -174 -222t-281 -81q-66 0 -137 24l-92 -282h-119l104 325 q-231 126 -231 449zM217 512q0 -207 115 -281l209 639h-21q-145 0 -227 -110q-76 -101 -76 -248z" />
<glyph unicode="&#xa3;" d="M14 180q0 87 58.5 141t150.5 54t150 -43v26q0 124 -51 273h-275v155h209q-80 204 -80 308q0 164 102.5 258t270.5 94q356 0 356 -391h-180q0 237 -174 237q-79 0 -125.5 -46t-46.5 -126q0 -118 88 -334h258v-155h-205q21 -120 21 -189q0 -91 -29 -180q139 -86 205 -86 q135 0 135 203h127q0 -404 -254 -404q-140 0 -274 125q-101 -131 -228 -131q-91 0 -150 60t-59 151zM135 184q0 -31 27.5 -54.5t60.5 -23.5q63 0 123 84q-71 68 -131 68q-80 0 -80 -74z" />
<glyph unicode="&#xa4;" horiz-adv-x="1241" d="M80 428l207 205q-84 113 -84 252t84 252l-207 206l82 80l205 -204q115 86 254 86q135 0 256 -86l204 204l82 -80l-205 -206q82 -107 82 -252q0 -148 -82 -252l205 -205l-82 -82l-204 205q-121 -86 -254 -86q-144 0 -256 86l-205 -205zM319 887q0 -126 89 -215 q90 -90 215 -90q127 0 215 88t88 217q0 127 -88 215t-215 88q-125 0 -215 -90q-89 -89 -89 -213z" />
<glyph unicode="&#xa5;" horiz-adv-x="1140" d="M-90 1247v174h555v-178h-158l277 -434l284 434h-184v178h545v-174h-174l-154 -233h203v-113h-279l-100 -151h379v-115h-442v-451h186v-184h-563v184h186v451h-436v115h373l-101 151h-272v113h198l-151 233h-172z" />
<glyph unicode="&#xa6;" horiz-adv-x="1024" d="M438 -350v758h150v-758h-150zM438 674v758h150v-758h-150z" />
<glyph unicode="&#xa7;" horiz-adv-x="1042" d="M70 766q0 106 88 176q82 64 192 64q-67 107 -67 188q0 229 315 229h242v-311h-123v203h-94q-89 0 -129 -21q-58 -27 -58 -106q0 -82 139 -227l256 -254q140 -152 140 -256q0 -105 -82 -175q-79 -67 -187 -67q95 -103 95 -217q0 -230 -316 -230h-268v312h125v-203h119 q90 0 129 20q57 26 57 107q0 78 -90 168l-369 373q-114 117 -114 227zM240 780q0 -94 182 -276t276 -182q44 0 77.5 33t33.5 77q0 50 -41 115q-60 91 -188 207q-149 137 -230 137q-44 0 -77 -33.5t-33 -77.5z" />
<glyph unicode="&#xa8;" horiz-adv-x="1024" d="M207 1298q0 44 34 78.5t78 34.5q47 0 80 -33t33 -80q0 -50 -32 -82t-81 -32t-80.5 32t-31.5 82zM590 1298q0 45 34 79t81 34q44 0 77 -34t33 -79q0 -48 -31.5 -81t-78.5 -33q-50 0 -82.5 31.5t-32.5 82.5z" />
<glyph unicode="&#xa9;" horiz-adv-x="1705" d="M117 727q0 305 215 520q214 217 520 217q309 0 524 -215q215 -212 215 -522q0 -303 -217 -520t-522 -217q-299 0 -518 219q-217 217 -217 518zM213 727q0 -261 190 -451q191 -188 451 -188q265 0 451 186q188 188 188 453q0 269 -186 455t-453 186t-455 -188 q-186 -186 -186 -453zM463 733q0 193 100 314q107 131 295 131q135 0 227 -68q103 -74 115 -203h-147q-24 160 -205 160q-120 0 -178 -117q-47 -92 -47 -223q0 -135 49 -223q62 -109 186 -109q170 0 205 176h145q0 -134 -114 -217q-103 -75 -242 -75q-190 0 -295 135 q-94 122 -94 319z" />
<glyph unicode="&#xaa;" horiz-adv-x="788" d="M45 926q0 108 82 172q69 57 184 57q88 0 213 -51v43q0 182 -157 182q-117 0 -183 -90l-131 31q83 170 324 170q153 0 217.5 -68t64.5 -223v-303h113v-123h-244v65q-118 -86 -237 -86q-108 0 -177 61t-69 163zM193 930q0 -46 35 -72.5t87 -26.5q82 0 213 87v51 q-105 63 -192 63q-52 0 -94 -22q-49 -27 -49 -80z" />
<glyph unicode="&#xab;" horiz-adv-x="901" d="M66 506l262 311h180l-258 -311l258 -313h-180zM397 506l262 311h181l-258 -311l258 -313h-181z" />
<glyph unicode="&#xac;" horiz-adv-x="1705" d="M254 721v139h1198v-502h-137v363h-1061z" />
<glyph unicode="&#xad;" horiz-adv-x="667" d="M86 422v176h498v-176h-498z" />
<glyph unicode="&#xae;" horiz-adv-x="1705" d="M117 727q0 305 215 520q214 217 520 217q305 0 522 -217q217 -214 217 -520q0 -305 -217 -522q-218 -215 -522 -215q-299 0 -518 219q-217 217 -217 518zM213 727q0 -257 188 -448t447 -191q269 0 457 182q188 185 188 451q0 272 -184 459q-182 188 -455 188 q-267 0 -455 -188q-186 -186 -186 -453zM557 324v835h315q349 0 349 -229q0 -178 -191 -225l187 -381h-177l-170 356h-155v-356h-158zM715 780h133q211 0 211 133q0 144 -215 144h-129v-277z" />
<glyph unicode="&#xaf;" horiz-adv-x="1024" d="M242 1229v139h540v-139h-540z" />
<glyph unicode="&#xb0;" horiz-adv-x="673" d="M49 1167q0 121 84 205t205 84q119 0 203 -84t84 -205q0 -120 -84 -204q-82 -82 -205 -82t-205 82t-82 204zM143 1169q0 -82 56.5 -139t138.5 -57q79 0 135.5 58t56.5 138q0 85 -53.5 139t-138.5 54q-82 0 -138.5 -55.5t-56.5 -137.5z" />
<glyph unicode="&#xb1;" horiz-adv-x="1705" d="M254 29v141h1198v-141h-1198zM254 713v139h528v340h142v-340h528v-139h-528v-340h-142v340h-528z" />
<glyph unicode="&#xb2;" horiz-adv-x="669" d="M33 567v11q0 169 110 282l209 160q111 82 111 178q0 63 -38 101t-101 38q-156 0 -156 -233h-119v35q0 140 75.5 218.5t211.5 78.5q112 0 186 -65.5t74 -172.5q0 -119 -104 -207l-201 -139q-113 -82 -125 -178h319v194h117v-301h-569z" />
<glyph unicode="&#xb3;" horiz-adv-x="669" d="M37 852h121q0 -90 39 -143q48 -66 129 -66q68 0 117 46.5t49 113.5q0 76 -58 122t-141 46q-17 0 -49 -4v100q219 0 219 143q0 131 -139 131q-144 0 -144 -176l-117 -4v21q0 118 70 186t189 68q110 0 186 -54q82 -61 82 -168q0 -133 -148 -192q172 -52 172 -217 q0 -124 -88 -191q-78 -63 -207 -63q-138 0 -210 79t-72 222z" />
<glyph unicode="&#xb4;" horiz-adv-x="1024" d="M369 1135l204 348h201l-285 -348h-120z" />
<glyph unicode="&#xb6;" horiz-adv-x="1024" d="M66 1130q0 167 116 261q107 88 277 88h499v-86h-120v-1393h-111v1393h-176v-1393h-113v782q-153 0 -264 97q-108 99 -108 251z" />
<glyph unicode="&#xb7;" horiz-adv-x="507" d="M123 707q0 54 38.5 92.5t92.5 38.5q52 0 90.5 -39t38.5 -92q0 -56 -36 -92.5t-93 -36.5q-56 0 -93.5 37t-37.5 92z" />
<glyph unicode="&#xb8;" horiz-adv-x="1024" d="M254 -326q178 -39 248 -39q119 0 119 82q0 88 -132 88q-19 0 -55 -4v199h78v-102q252 0 252 -181q0 -188 -252 -188q-100 0 -258 45v100z" />
<glyph unicode="&#xb9;" horiz-adv-x="669" d="M158 567v107h123v641h-123v104h248v-745h116v-107h-364z" />
<glyph unicode="&#xba;" horiz-adv-x="849" d="M49 1071q0 165 103.5 267t271.5 102q164 0 270 -103q107 -101 107 -266q0 -166 -104.5 -267.5t-272.5 -101.5t-271.5 102t-103.5 267zM199 1073q0 -109 57 -172q61 -70 168 -70t166 65.5t59 176.5t-59 175.5t-166 64.5q-104 0 -164.5 -66.5t-60.5 -173.5z" />
<glyph unicode="&#xbb;" horiz-adv-x="901" d="M61 193l258 313l-258 311h181l262 -311l-262 -313h-181zM393 193l258 313l-258 311h180l263 -311l-263 -313h-180z" />
<glyph unicode="&#xbc;" horiz-adv-x="1619" d="M150 623v98h116v600h-116v98h237v-698h111v-98h-348zM297 -29l887 1475h137l-887 -1475h-137zM999 313l351 496h110v-496h127v-88h-127v-127h88v-98h-295v98h101v127h-307q-6 52 -48 88zM1106 313h248l6 363z" />
<glyph unicode="&#xbd;" horiz-adv-x="1619" d="M150 623v98h116v600h-116v98h237v-698h111v-98h-348zM297 -29l887 1475h137l-887 -1475h-137zM1012 0v10q0 158 106 264l197 148q106 78 106 168q0 129 -131 129q-149 0 -149 -217h-113v30q0 129 73 203t202 74q109 0 176 -55q71 -62 71 -166q0 -111 -100 -195l-193 -129 q-109 -77 -118 -166h305v183h110v-281h-542z" />
<glyph unicode="&#xbe;" horiz-adv-x="1619" d="M37 887h115q0 -83 36 -133q45 -60 123 -60q69 0 113.5 40.5t44.5 107.5q0 83 -63 125q-53 33 -142 30q-6 -2 -31 -2v92q209 0 209 136q0 123 -133 123q-137 0 -137 -164l-111 -6v20q0 109 67.5 172.5t178.5 63.5q105 0 176 -50q80 -56 80 -155q0 -130 -139 -180 q164 -53 164 -201q0 -112 -80.5 -176t-202.5 -64q-128 0 -198 74.5t-70 206.5zM297 -29l887 1475h137l-887 -1475h-137zM999 313l351 496h110v-496h127v-88h-127v-127h88v-98h-295v98h101v127h-307q-6 52 -48 88zM1106 313h248l6 363z" />
<glyph unicode="&#xbf;" horiz-adv-x="958" d="M86 346q0 350 385 397l18 271h113l23 -441q-46 17 -95 17q-110 0 -180.5 -67t-70.5 -175q0 -98 63 -158.5t162 -60.5q223 0 223 279h184v-25q0 -186 -112.5 -299t-298.5 -113q-170 0 -289 101q-125 107 -125 274zM432 1165v252h227v-252h-227z" />
<glyph unicode="&#xc0;" horiz-adv-x="1294" d="M-57 0v184h163l371 1063h-184v174h711v-174h-175l367 -1063h154v-184h-533v184h172l-110 320h-480l-108 -320h160v-184h-508zM375 1907h200l205 -348h-121zM461 676h356l-176 528z" />
<glyph unicode="&#xc1;" horiz-adv-x="1294" d="M-57 0v184h163l371 1063h-184v174h711v-174h-175l367 -1063h154v-184h-533v184h172l-110 320h-480l-108 -320h160v-184h-508zM461 676h356l-176 528zM559 1587l205 348h201l-285 -348h-121z" />
<glyph unicode="&#xc2;" horiz-adv-x="1294" d="M-57 0v184h163l371 1063h-184v174h711v-174h-175l367 -1063h154v-184h-533v184h172l-110 320h-480l-108 -320h160v-184h-508zM369 1554l196 349h197l196 -349h-122l-172 230l-175 -230h-120zM461 676h356l-176 528z" />
<glyph unicode="&#xc3;" horiz-adv-x="1294" d="M-57 0v184h163l371 1063h-184v174h711v-174h-175l367 -1063h154v-184h-533v184h172l-110 320h-480l-108 -320h160v-184h-508zM365 1583q40 205 192 205q34 0 107 -25q74 -22 104 -22q67 0 94 74h88q-38 -209 -196 -209q-33 0 -107 22q-77 23 -104 23q-60 0 -90 -68h-88z M461 676h356l-176 528z" />
<glyph unicode="&#xc4;" horiz-adv-x="1294" d="M-57 0v184h163l371 1063h-184v174h711v-174h-175l367 -1063h154v-184h-533v184h172l-110 320h-480l-108 -320h160v-184h-508zM365 1733q0 47 33.5 79.5t78.5 32.5q47 0 80 -32.5t33 -79.5q0 -50 -32 -82.5t-81 -32.5t-80.5 32.5t-31.5 82.5zM461 676h356l-176 528z M748 1733q0 47 33.5 79.5t80.5 32.5q45 0 78 -32.5t33 -79.5q0 -50 -31 -82.5t-80 -32.5t-81.5 32.5t-32.5 82.5z" />
<glyph unicode="&#xc5;" horiz-adv-x="1294" d="M-57 0v184h163l371 1063h-184v174h711v-174h-175l367 -1063h154v-184h-533v184h172l-110 320h-480l-108 -320h160v-184h-508zM406 1731q0 103 69 172t172 69q105 0 174.5 -68.5t69.5 -172.5q0 -100 -72 -172t-172 -72t-172 72q-69 69 -69 172zM461 676h356l-176 528z M524 1731q0 -51 37 -88t88 -37q54 0 88.5 35.5t34.5 89.5q0 51 -36 86.5t-87 35.5t-88 -35.5t-37 -86.5z" />
<glyph unicode="&#xc6;" horiz-adv-x="1939" d="M-92 0v184h160l569 1063h-201v174h1403v-422h-170v248h-534v-430h467v-170h-467v-463h534v271h170v-455h-1126v184h219v463h-414l-246 -463h156v-184h-520zM610 817h322v445h-88z" />
<glyph unicode="&#xc7;" horiz-adv-x="1540" d="M70 709q0 323 196 528q197 209 516 209q302 0 459 -207v182h174v-456h-188q-123 292 -430 292q-232 0 -373 -159q-135 -150 -135 -387q0 -230 129 -383q138 -166 362 -166q183 0 320 119q128 113 186 292l176 -104q-57 -181 -178 -302t-289 -167h45v-102q114 0 174 -31 q78 -44 78 -150q0 -188 -252 -188q-82 0 -258 45v100q178 -39 248 -39q119 0 119 82q0 88 -131 88q-19 0 -55 -4v191q-85 -21 -181 -21q-315 0 -516 213q-196 205 -196 525z" />
<glyph unicode="&#xc8;" horiz-adv-x="1300" d="M41 0v184h168v1063h-168v174h1161v-422h-172v248h-618v-432h553v-170h-553v-461h618v271h172v-455h-1161zM442 1915h201l205 -348h-121z" />
<glyph unicode="&#xc9;" horiz-adv-x="1300" d="M41 0v184h168v1063h-168v174h1161v-422h-172v248h-618v-432h553v-170h-553v-461h618v271h172v-455h-1161zM506 1563l205 348h200l-284 -348h-121z" />
<glyph unicode="&#xca;" horiz-adv-x="1300" d="M41 0v184h168v1063h-168v174h1161v-422h-172v248h-618v-432h553v-170h-553v-461h618v271h172v-455h-1161zM377 1563l196 348h197l197 -348h-123l-172 229l-174 -229h-121z" />
<glyph unicode="&#xcb;" horiz-adv-x="1300" d="M41 0v184h168v1063h-168v174h1161v-422h-172v248h-618v-432h553v-170h-553v-461h618v271h172v-455h-1161zM373 1724q0 47 33.5 80t78.5 33q47 0 80 -33t33 -80q0 -50 -32 -82t-81 -32t-80.5 32t-31.5 82zM756 1724q0 47 33.5 80t80.5 33q45 0 78 -33t33 -80 q0 -50 -31 -82t-80 -32q-50 0 -82 32t-32 82z" />
<glyph unicode="&#xcc;" horiz-adv-x="620" d="M41 0v184h168v1063h-168v174h541v-174h-170v-1063h170v-184h-541zM45 1894h201l205 -348h-121z" />
<glyph unicode="&#xcd;" horiz-adv-x="620" d="M41 0v184h168v1063h-168v174h541v-174h-170v-1063h170v-184h-541zM207 1554l205 349h200l-284 -349h-121z" />
<glyph unicode="&#xce;" horiz-adv-x="620" d="M8 1546l197 348h196l197 -348h-123l-172 230l-174 -230h-121zM41 0v184h168v1063h-168v174h541v-174h-170v-1063h170v-184h-541z" />
<glyph unicode="&#xcf;" horiz-adv-x="620" d="M4 1681q0 47 34 80t79 33q47 0 79.5 -33t32.5 -80q0 -50 -31.5 -82t-80.5 -32t-81 32t-32 82zM41 0v184h168v1063h-168v174h541v-174h-170v-1063h170v-184h-541zM387 1681q0 47 34 80t81 33q45 0 77.5 -33t32.5 -80q0 -50 -30.5 -82t-79.5 -32q-50 0 -82.5 32.5 t-32.5 81.5z" />
<glyph unicode="&#xd0;" horiz-adv-x="1472" d="M0 684v156h215v407h-172v174h655q336 0 519.5 -186t183.5 -524t-183.5 -524.5t-519.5 -186.5h-655v184h172v500h-215zM420 186h260q496 0 496 531q0 243 -111 381q-119 149 -356 149h-289v-407h334v-156h-334v-498z" />
<glyph unicode="&#xd1;" horiz-adv-x="1523" d="M35 0v184h174v1063h-174v174h452l643 -1108v934h-174v174h562v-174h-205v-1247h-232l-690 1192v-1008h174v-184h-530zM479 1599q40 205 193 205q36 0 106 -24q77 -23 105 -23q67 0 94 74h88q-38 -209 -197 -209q-29 0 -106 23q-74 22 -105 22q-60 0 -90 -68h-88z" />
<glyph unicode="&#xd2;" horiz-adv-x="1564" d="M70 709q0 318 196 526q199 211 516 211q324 0 521 -209q190 -202 190 -528q0 -320 -195 -527q-199 -211 -516 -211q-315 0 -516 213q-196 205 -196 525zM289 711q0 -230 129 -383q138 -166 362 -166q227 0 365 164q129 156 129 385q0 230 -129 383q-136 161 -365 161 q-226 0 -362 -161q-129 -153 -129 -383zM520 1946h201l205 -349h-121z" />
<glyph unicode="&#xd3;" horiz-adv-x="1564" d="M70 709q0 318 196 526q199 211 516 211q324 0 521 -209q190 -202 190 -528q0 -320 -195 -527q-199 -211 -516 -211q-315 0 -516 213q-196 205 -196 525zM289 711q0 -230 129 -383q138 -166 362 -166q227 0 365 164q129 156 129 385q0 230 -129 383q-136 161 -365 161 q-226 0 -362 -161q-129 -153 -129 -383zM727 1589l205 348h201l-285 -348h-121z" />
<glyph unicode="&#xd4;" horiz-adv-x="1564" d="M70 709q0 318 196 526q199 211 516 211q324 0 521 -209q190 -202 190 -528q0 -320 -195 -527q-199 -211 -516 -211q-315 0 -516 213q-196 205 -196 525zM289 711q0 -230 129 -383q138 -166 362 -166q227 0 365 164q129 156 129 385q0 230 -129 383q-136 161 -365 161 q-226 0 -362 -161q-129 -153 -129 -383zM559 1581l197 348h196l197 -348h-123l-172 229l-174 -229h-121z" />
<glyph unicode="&#xd5;" horiz-adv-x="1564" d="M70 709q0 318 196 526q199 211 516 211q324 0 521 -209q190 -202 190 -528q0 -320 -195 -527q-199 -211 -516 -211q-315 0 -516 213q-196 205 -196 525zM289 711q0 -230 129 -383q138 -166 362 -166q227 0 365 164q129 156 129 385q0 230 -129 383q-136 161 -365 161 q-226 0 -362 -161q-129 -153 -129 -383zM520 1608q34 204 193 204q36 0 106 -24q77 -23 105 -23q67 0 94 74h88q-15 -83 -57 -139q-52 -70 -129 -70q-32 0 -113 23q-74 22 -109 22q-60 0 -90 -67h-88z" />
<glyph unicode="&#xd6;" horiz-adv-x="1564" d="M70 709q0 318 196 526q199 211 516 211q324 0 521 -209q190 -202 190 -528q0 -320 -195 -527q-199 -211 -516 -211q-315 0 -516 213q-196 205 -196 525zM289 711q0 -230 129 -383q138 -166 362 -166q227 0 365 164q129 156 129 385q0 230 -129 383q-136 161 -365 161 q-226 0 -362 -161q-129 -153 -129 -383zM532 1724q0 47 34 80t79 33q47 0 80 -33t33 -80q0 -50 -32 -82t-81 -32t-81 32t-32 82zM915 1724q0 47 34 80t81 33q45 0 78 -33t33 -80q0 -50 -31 -82t-80 -32q-50 0 -82.5 32.5t-32.5 81.5z" />
<glyph unicode="&#xd7;" horiz-adv-x="1705" d="M293 141l469 469l-469 469l98 99l469 -469l469 469l98 -99l-469 -469l469 -469l-98 -96l-469 467l-469 -467z" />
<glyph unicode="&#xd8;" horiz-adv-x="1564" d="M70 709q0 324 200 530q201 207 523 207q252 0 407 -125l133 152l109 -97l-135 -151q186 -219 186 -516q0 -320 -195 -527q-199 -211 -516 -211q-264 0 -446 150l-143 -166l-115 102l151 172q-159 199 -159 480zM289 711q0 -209 86 -324l688 780q-137 88 -283 88 q-226 0 -362 -161q-129 -153 -129 -383zM473 276q126 -114 307 -114q227 0 365 164q129 156 129 385q0 212 -107 352z" />
<glyph unicode="&#xd9;" horiz-adv-x="1476" d="M25 1247v174h557v-174h-172v-760q0 -329 301 -329q309 0 309 329v760h-174v174h543v-174h-172v-659q0 -308 -99 -449q-119 -168 -411 -168q-288 0 -408 170q-100 141 -100 447v659h-174zM471 1929h201l205 -348h-121z" />
<glyph unicode="&#xda;" horiz-adv-x="1476" d="M25 1247v174h557v-174h-172v-760q0 -329 301 -329q309 0 309 329v760h-174v174h543v-174h-172v-659q0 -308 -99 -449q-119 -168 -411 -168q-288 0 -408 170q-100 141 -100 447v659h-174zM635 1556l205 349h200l-284 -349h-121z" />
<glyph unicode="&#xdb;" horiz-adv-x="1476" d="M25 1247v174h557v-174h-172v-760q0 -329 301 -329q309 0 309 329v760h-174v174h543v-174h-172v-659q0 -308 -99 -449q-119 -168 -411 -168q-288 0 -408 170q-100 141 -100 447v659h-174zM467 1581l197 348h196l197 -348h-123l-172 229l-174 -229h-121z" />
<glyph unicode="&#xdc;" horiz-adv-x="1476" d="M25 1247v174h557v-174h-172v-760q0 -329 301 -329q309 0 309 329v760h-174v174h543v-174h-172v-659q0 -308 -99 -449q-119 -168 -411 -168q-288 0 -408 170q-100 141 -100 447v659h-174zM440 1716q0 47 34 80t79 33q47 0 80 -33t33 -80q0 -50 -32 -82t-81 -32 q-47 0 -80 33.5t-33 80.5zM823 1716q0 47 34 80t81 33q45 0 78 -33t33 -80q0 -50 -31 -82t-80 -32q-50 0 -82.5 32.5t-32.5 81.5z" />
<glyph unicode="&#xdd;" horiz-adv-x="1110" d="M-113 1247v174h566v-174h-154l268 -422l277 422h-178v174h555v-174h-174l-394 -596v-467h185v-184h-576v184h187v467l-390 596h-172zM457 1999l205 348h200l-284 -348h-121z" />
<glyph unicode="&#xde;" horiz-adv-x="1230" d="M41 0v184h168v1063h-168v174h541v-174h-170v-106q365 0 493 -41q252 -82 252 -373q0 -293 -252 -375q-128 -43 -493 -43v-125h170v-184h-541zM412 479h170q358 0 358 244q0 242 -358 242h-170v-486z" />
<glyph unicode="&#xdf;" horiz-adv-x="1101" d="M10 0v176h152v873q0 397 356 397q145 0 246 -78q104 -82 104 -229q0 -167 -190 -234q165 0 260 -139q84 -122 84 -293q0 -191 -94 -328q-107 -155 -291 -155q-10 0 -92 4v180q150 0 217 76q61 70 61 225q0 168 -90 240q-81 63 -252 63v172q90 0 146 41q63 45 63 131 q0 74 -49.5 119t-128.5 45q-103 0 -141 -78q-27 -52 -27 -172v-860h111v-176h-445z" />
<glyph unicode="&#xe0;" horiz-adv-x="1050" d="M59 289q0 154 103 243q96 84 252 84q101 0 284 -71v59q0 262 -211 262q-147 0 -241 -129l-174 45q102 242 430 242q211 0 299 -104q78 -96 78 -312v-432h151v-176h-325v94q-144 -123 -318 -123q-148 0 -238 86t-90 232zM199 1483h200l205 -348h-121zM256 295 q0 -63 51 -102q46 -37 113 -37q112 0 285 123v73q-153 90 -256 90q-78 0 -130 -34q-63 -40 -63 -113z" />
<glyph unicode="&#xe1;" horiz-adv-x="1050" d="M59 289q0 154 103 243q96 84 252 84q101 0 284 -71v59q0 262 -211 262q-147 0 -241 -129l-174 45q102 242 430 242q211 0 299 -104q78 -96 78 -312v-432h151v-176h-325v94q-144 -123 -318 -123q-148 0 -238 86t-90 232zM256 295q0 -63 51 -102q46 -37 113 -37 q112 0 285 123v73q-153 90 -256 90q-78 0 -130 -34q-63 -40 -63 -113zM317 1135l205 348h201l-285 -348h-121z" />
<glyph unicode="&#xe2;" horiz-adv-x="1050" d="M59 289q0 154 103 243q96 84 252 84q101 0 284 -71v59q0 262 -211 262q-147 0 -241 -129l-174 45q102 242 430 242q211 0 299 -104q78 -96 78 -312v-432h151v-176h-325v94q-144 -123 -318 -123q-148 0 -238 86t-90 232zM166 1135l196 348h197l197 -348h-123l-172 229 l-174 -229h-121zM256 295q0 -63 51 -102q46 -37 113 -37q112 0 285 123v73q-153 90 -256 90q-78 0 -130 -34q-63 -40 -63 -113z" />
<glyph unicode="&#xe3;" horiz-adv-x="1050" d="M59 289q0 154 103 243q96 84 252 84q101 0 284 -71v59q0 262 -211 262q-147 0 -241 -129l-174 45q102 242 430 242q211 0 299 -104q78 -96 78 -312v-432h151v-176h-325v94q-144 -123 -318 -123q-148 0 -238 86t-90 232zM168 1182q37 204 192 204q34 0 105 -24 q77 -23 106 -23q68 0 95 74h88q-15 -81 -58 -139q-52 -70 -129 -70q-32 0 -116 23q-77 22 -113 22q-48 0 -82 -67h-88zM256 295q0 -63 51 -102q46 -37 113 -37q112 0 285 123v73q-153 90 -256 90q-78 0 -130 -34q-63 -40 -63 -113z" />
<glyph unicode="&#xe4;" horiz-adv-x="1050" d="M59 289q0 154 103 243q96 84 252 84q101 0 284 -71v59q0 262 -211 262q-147 0 -241 -129l-174 45q102 242 430 242q211 0 299 -104q78 -96 78 -312v-432h151v-176h-325v94q-144 -123 -318 -123q-148 0 -238 86t-90 232zM156 1298q0 44 34 78.5t78 34.5q47 0 80 -33 t33 -80q0 -50 -32 -82t-81 -32t-80.5 32t-31.5 82zM256 295q0 -63 51 -102q46 -37 113 -37q112 0 285 123v73q-153 90 -256 90q-78 0 -130 -34q-63 -40 -63 -113zM539 1298q0 45 33.5 79t80.5 34q45 0 78 -33t33 -80q0 -48 -32 -81t-79 -33q-49 0 -81.5 32t-32.5 82z" />
<glyph unicode="&#xe5;" horiz-adv-x="1050" d="M59 289q0 154 103 243q96 84 252 84q101 0 284 -71v59q0 262 -211 262q-147 0 -241 -129l-174 45q102 242 430 242q211 0 299 -104q78 -96 78 -312v-432h151v-176h-325v94q-144 -123 -318 -123q-148 0 -238 86t-90 232zM248 1335q0 103 69 172q70 70 172 70 q103 0 172.5 -69.5t69.5 -172.5q0 -100 -72 -172q-71 -71 -170 -71q-101 0 -172 71q-69 69 -69 172zM256 295q0 -63 51 -102q46 -37 113 -37q112 0 285 123v73q-153 90 -256 90q-78 0 -130 -34q-63 -40 -63 -113zM367 1335q0 -51 35.5 -88t86.5 -37q50 0 87.5 37t37.5 88 q0 54 -35.5 88.5t-89.5 34.5q-51 0 -86.5 -36t-35.5 -87z" />
<glyph unicode="&#xe6;" horiz-adv-x="1697" d="M66 289q0 150 99 238.5t255 88.5q102 0 285 -71v59q0 262 -211 262q-148 0 -242 -129l-172 45q50 123 174 187q107 55 252 55q242 0 325 -145q142 145 338 145q237 0 357 -178q100 -147 100 -400h-737q0 -128 81.5 -208t211.5 -80q189 0 299 174l149 -82 q-150 -279 -461 -279q-238 0 -383 201q-171 -201 -391 -201q-149 0 -239 86.5t-90 231.5zM264 295q0 -64 53 -102q47 -35 115 -35q155 0 279 118v76q-156 90 -256 90q-80 0 -129 -32q-62 -41 -62 -115zM897 594h530q-27 264 -266 264q-117 0 -190.5 -73.5t-73.5 -190.5z" />
<glyph unicode="&#xe7;" horiz-adv-x="1095" d="M66 498q0 223 129 370q135 156 354 156q170 0 295 -113v88h160v-372h-160q-58 223 -266 223q-152 0 -234 -102q-76 -94 -76 -248q0 -151 78 -244q81 -100 229 -100q211 0 316 200l158 -77q-55 -140 -180 -222.5t-281 -85.5v-73q114 0 174 -31q78 -44 78 -150 q0 -188 -252 -188q-100 0 -258 45v100q178 -39 248 -39q118 0 118 82q0 88 -131 88q-19 0 -55 -4v174q-188 18 -305 144q-139 148 -139 379z" />
<glyph unicode="&#xe8;" horiz-adv-x="1120" d="M66 498q0 229 135 376q138 150 364 150q249 0 375 -170q111 -150 111 -408h-785q0 -129 90 -210q89 -80 224 -80q97 0 182.5 47t134.5 129l158 -82q-156 -279 -477 -279q-233 0 -373 146q-139 148 -139 381zM283 594h567q-27 264 -285 264q-122 0 -196 -70t-86 -194z M379 1483h201l204 -348h-120z" />
<glyph unicode="&#xe9;" horiz-adv-x="1120" d="M66 498q0 229 135 376q138 150 364 150q249 0 375 -170q111 -150 111 -408h-785q0 -129 90 -210q89 -80 224 -80q97 0 182.5 47t134.5 129l158 -82q-156 -279 -477 -279q-233 0 -373 146q-139 148 -139 381zM283 594h567q-27 264 -285 264q-122 0 -196 -70t-86 -194z M498 1135l204 348h201l-285 -348h-120z" />
<glyph unicode="&#xea;" horiz-adv-x="1120" d="M66 498q0 229 135 376q138 150 364 150q249 0 375 -170q111 -150 111 -408h-785q0 -129 90 -210q89 -80 224 -80q97 0 182.5 47t134.5 129l158 -82q-156 -279 -477 -279q-233 0 -373 146q-139 148 -139 381zM283 594h567q-27 264 -285 264q-122 0 -196 -70t-86 -194z M346 1135l197 348h196l197 -348h-123l-172 229l-174 -229h-121z" />
<glyph unicode="&#xeb;" horiz-adv-x="1120" d="M66 498q0 229 135 376q138 150 364 150q249 0 375 -170q111 -150 111 -408h-785q0 -129 90 -210q89 -80 224 -80q97 0 182.5 47t134.5 129l158 -82q-156 -279 -477 -279q-233 0 -373 146q-139 148 -139 381zM283 594h567q-27 264 -285 264q-122 0 -196 -70t-86 -194z M336 1298q0 44 34.5 78.5t78.5 34.5q47 0 79.5 -33t32.5 -80q0 -50 -31.5 -82t-80.5 -32t-81 32t-32 82zM719 1298q0 45 34 79t81 34q44 0 77 -34t33 -79q0 -48 -31.5 -81t-78.5 -33q-50 0 -82.5 31.5t-32.5 82.5z" />
<glyph unicode="&#xec;" horiz-adv-x="536" d="M-8 1495h201l204 -336l-121 -12zM39 0v176h141v658h-141v165h321v-823h148v-176h-469z" />
<glyph unicode="&#xed;" horiz-adv-x="536" d="M39 0v176h141v658h-141v165h321v-823h148v-176h-469zM135 1122l205 348h201l-285 -348h-121z" />
<glyph unicode="&#xee;" horiz-adv-x="536" d="M8 1159l197 348h196l197 -348h-123l-172 230l-174 -230h-121zM39 0v176h141v658h-141v165h321v-823h148v-176h-469z" />
<glyph unicode="&#xef;" horiz-adv-x="536" d="M-27 1298q0 44 34.5 78.5t78.5 34.5q47 0 80 -33t33 -80q0 -50 -32 -82t-81 -32q-47 0 -80 33.5t-33 80.5zM39 0v176h141v658h-141v165h321v-823h148v-176h-469zM356 1298q0 45 34 79t81 34q45 0 78 -33t33 -80q0 -48 -32 -81t-79 -33q-50 0 -82.5 32.5t-32.5 81.5z" />
<glyph unicode="&#xf0;" horiz-adv-x="1132" d="M66 475q0 216 131 356q132 144 344 144q62 0 135 -25l-92 150l-342 -109l-27 94l315 101l-55 94h-168v141h281l108 -180l303 98l31 -96l-280 -90l206 -328q111 -200 111 -364q0 -217 -141 -355q-141 -135 -361 -135q-222 0 -362 140q-137 140 -137 364zM264 477 q0 -145 80.5 -233t220.5 -88t220.5 88t80.5 233q0 150 -78.5 237t-222.5 87q-141 0 -221 -88t-80 -236z" />
<glyph unicode="&#xf1;" horiz-adv-x="1110" d="M39 0v176h141v658h-141v165h313v-153q189 155 346 155q153 0 205 -110q35 -75 35 -248v-467h147v-176h-327v569q0 127 -10 172q-24 99 -117 99q-126 0 -271 -154v-510h148v-176h-469zM307 1182q40 204 193 204q36 0 106 -24q77 -23 105 -23q70 0 94 74h88 q-15 -83 -59 -139q-52 -70 -127 -70q-33 0 -117 23q-77 22 -113 22q-48 0 -82 -67h-88z" />
<glyph unicode="&#xf2;" horiz-adv-x="1132" d="M66 498q0 229 135 376q138 150 364 150q232 0 367 -147q135 -144 135 -379q0 -232 -133 -377q-138 -150 -369 -150q-226 0 -366 152q-133 145 -133 375zM264 500q0 -150 74 -242q80 -102 227 -102q149 0 228 102q73 91 73 242q0 153 -71 245q-79 99 -230 99 q-148 0 -227 -101q-74 -89 -74 -243zM362 1483h201l205 -348h-121z" />
<glyph unicode="&#xf3;" horiz-adv-x="1132" d="M66 498q0 229 135 376q138 150 364 150q232 0 367 -147q135 -144 135 -379q0 -232 -133 -377q-138 -150 -369 -150q-226 0 -366 152q-133 145 -133 375zM264 500q0 -150 74 -242q80 -102 227 -102q149 0 228 102q73 91 73 242q0 153 -71 245q-79 99 -230 99 q-148 0 -227 -101q-74 -89 -74 -243zM481 1135l205 348h201l-285 -348h-121z" />
<glyph unicode="&#xf4;" horiz-adv-x="1132" d="M66 498q0 229 135 376q138 150 364 150q232 0 367 -147q135 -144 135 -379q0 -232 -133 -377q-138 -150 -369 -150q-226 0 -366 152q-133 145 -133 375zM264 500q0 -150 74 -242q80 -102 227 -102q149 0 228 102q73 91 73 242q0 153 -71 245q-79 99 -230 99 q-148 0 -227 -101q-74 -89 -74 -243zM330 1135l196 348h197l197 -348h-123l-172 229l-174 -229h-121z" />
<glyph unicode="&#xf5;" horiz-adv-x="1132" d="M66 498q0 229 135 376q138 150 364 150q232 0 367 -147q135 -144 135 -379q0 -232 -133 -377q-138 -150 -369 -150q-226 0 -366 152q-133 145 -133 375zM264 500q0 -150 74 -242q80 -102 227 -102q149 0 228 102q73 91 73 242q0 153 -71 245q-79 99 -230 99 q-148 0 -227 -101q-74 -89 -74 -243zM332 1182q34 204 192 204q36 0 107 -24q77 -23 104 -23q67 0 94 74h89q-15 -81 -58 -139q-52 -70 -129 -70q-33 0 -113 23q-74 22 -108 22q-60 0 -90 -67h-88z" />
<glyph unicode="&#xf6;" horiz-adv-x="1132" d="M66 498q0 229 135 376q138 150 364 150q232 0 367 -147q135 -144 135 -379q0 -232 -133 -377q-138 -150 -369 -150q-226 0 -366 152q-133 145 -133 375zM264 500q0 -150 74 -242q80 -102 227 -102q149 0 228 102q73 91 73 242q0 153 -71 245q-79 99 -230 99 q-148 0 -227 -101q-74 -89 -74 -243zM319 1298q0 44 34.5 78.5t78.5 34.5q47 0 80 -33t33 -80q0 -50 -32 -82t-81 -32t-81 32t-32 82zM702 1298q0 45 34 79t81 34q45 0 78 -33t33 -80q0 -48 -32 -81t-79 -33q-50 0 -82.5 32.5t-32.5 81.5z" />
<glyph unicode="&#xf7;" horiz-adv-x="1705" d="M254 541v139h1198v-139h-1198zM729 242q0 51 37 88t88 37t88 -37t37 -88q0 -52 -36 -88.5t-89 -36.5q-51 0 -88 37t-37 88zM729 979q0 53 36.5 90t88.5 37q51 0 88 -38t37 -89t-37 -88t-88 -37t-88 37t-37 88z" />
<glyph unicode="&#xf8;" horiz-adv-x="1132" d="M16 59l134 127q-84 134 -84 312q0 229 135 376q138 150 364 150q197 0 332 -117l117 115l80 -82l-119 -117q92 -133 92 -325q0 -232 -133 -377q-138 -150 -369 -150q-197 0 -342 127l-135 -129zM264 500q0 -89 31 -174l467 452q-81 66 -197 66q-148 0 -227 -101 q-74 -89 -74 -243zM362 231q90 -75 203 -75q153 0 232 98q71 92 71 246q0 123 -37 184z" />
<glyph unicode="&#xf9;" horiz-adv-x="1103" d="M23 834v165h327v-618q0 -121 12 -162q27 -86 117 -86q129 0 271 154v547h-154v165h332v-823h143v-176h-315v127q-200 -156 -344 -156q-154 0 -207 111q-35 72 -35 248v504h-147zM279 1483h200l205 -348h-121z" />
<glyph unicode="&#xfa;" horiz-adv-x="1103" d="M23 834v165h327v-618q0 -121 12 -162q27 -86 117 -86q129 0 271 154v547h-154v165h332v-823h143v-176h-315v127q-200 -156 -344 -156q-154 0 -207 111q-35 72 -35 248v504h-147zM397 1135l205 348h201l-285 -348h-121z" />
<glyph unicode="&#xfb;" horiz-adv-x="1103" d="M23 834v165h327v-618q0 -121 12 -162q27 -86 117 -86q129 0 271 154v547h-154v165h332v-823h143v-176h-315v127q-200 -156 -344 -156q-154 0 -207 111q-35 72 -35 248v504h-147zM246 1135l196 348h197l197 -348h-123l-172 229l-174 -229h-121z" />
<glyph unicode="&#xfc;" horiz-adv-x="1103" d="M23 834v165h327v-618q0 -121 12 -162q27 -86 117 -86q129 0 271 154v547h-154v165h332v-823h143v-176h-315v127q-200 -156 -344 -156q-154 0 -207 111q-35 72 -35 248v504h-147zM236 1298q0 44 34 78.5t78 34.5q47 0 80 -33t33 -80q0 -50 -32 -82t-81 -32t-80.5 32 t-31.5 82zM618 1298q0 45 34 79t81 34q45 0 78 -33t33 -80q0 -48 -32 -81t-79 -33q-50 0 -82.5 32.5t-32.5 81.5z" />
<glyph unicode="&#xfd;" horiz-adv-x="1005" d="M-10 834v165h420v-165h-115l221 -558l215 558h-117v165h400v-165h-117l-448 -1166h-340v166h237l76 197l-320 803h-112zM352 1135l205 348h201l-285 -348h-121z" />
<glyph unicode="&#xfe;" horiz-adv-x="1208" d="M31 -158h143v1413h-143v166h325v-567q164 147 334 147q215 0 338 -153q111 -141 111 -363q0 -220 -113 -360q-121 -154 -336 -154q-186 0 -334 148v-277h191v-174h-516v174zM356 489q0 -144 72 -237q79 -102 221 -102q147 0 225 100q72 90 72 239t-72 242q-76 98 -225 98 q-148 0 -223 -100q-70 -91 -70 -240z" />
<glyph unicode="&#xff;" horiz-adv-x="1005" d="M-10 834v165h420v-165h-115l221 -558l215 558h-117v165h400v-165h-117l-448 -1166h-340v166h237l76 197l-320 803h-112zM190 1298q0 44 34.5 78.5t78.5 34.5q47 0 80 -33t33 -80q0 -50 -32 -82t-81 -32t-81 32t-32 82zM573 1298q0 45 34 79t81 34q45 0 78 -33t33 -80 q0 -48 -32 -81t-79 -33q-50 0 -82.5 32.5t-32.5 81.5z" />
<glyph unicode="&#x152;" horiz-adv-x="2068" d="M82 711q0 226 102 401q112 192 314 262q136 47 434 47h1048v-422h-170v248h-573v-432h506v-170h-506v-461h573v271h170v-455h-1048q-212 0 -326 18q-250 40 -393 242q-131 186 -131 451zM299 717q0 -389 297 -502q93 -37 322 -37h116v1075h-119q-160 0 -231 -14 q-186 -34 -291 -184q-94 -137 -94 -338z" />
<glyph unicode="&#x153;" horiz-adv-x="1900" d="M76 498q0 233 131 379q132 147 362 147q255 0 396 -190q129 190 391 190q245 0 368 -172q107 -149 107 -406h-770q0 -129 87.5 -209.5t219.5 -80.5q203 0 311 176l154 -82q-150 -279 -477 -279q-241 0 -391 187q-138 -187 -396 -187q-225 0 -362 152q-131 143 -131 375z M272 500q0 -152 72 -242q80 -102 225 -102q150 0 228 100q71 92 71 244q0 156 -71 245q-77 99 -228 99q-146 0 -225 -101q-72 -93 -72 -243zM1079 594h549q-27 264 -274 264q-118 0 -196.5 -74t-78.5 -190z" />
<glyph unicode="&#x178;" horiz-adv-x="1110" d="M-113 1247v174h566v-174h-154l268 -422l277 422h-178v174h555v-174h-174l-394 -596v-467h185v-184h-576v184h187v467l-390 596h-172zM283 1733q0 47 33.5 79.5t78.5 32.5q47 0 80 -32.5t33 -79.5q0 -50 -32 -82.5t-81 -32.5t-80.5 32.5t-31.5 82.5zM666 1733 q0 47 33.5 79.5t80.5 32.5q45 0 78 -32.5t33 -79.5q0 -50 -31 -82.5t-80 -32.5t-81.5 32.5t-32.5 82.5z" />
<glyph unicode="&#x2c6;" horiz-adv-x="1024" d="M217 1135l197 348h196l197 -348h-123l-172 229l-174 -229h-121z" />
<glyph unicode="&#x2dc;" horiz-adv-x="1024" d="M219 1182q40 204 193 204q36 0 106 -24q77 -23 105 -23q67 0 94 74h88q-15 -81 -60 -139q-52 -70 -127 -70q-32 0 -116 23q-77 22 -113 22q-48 0 -82 -67h-88z" />
<glyph unicode="&#x2000;" horiz-adv-x="1173" />
<glyph unicode="&#x2001;" horiz-adv-x="2347" />
<glyph unicode="&#x2002;" horiz-adv-x="1173" />
<glyph unicode="&#x2003;" horiz-adv-x="2347" />
<glyph unicode="&#x2004;" horiz-adv-x="782" />
<glyph unicode="&#x2005;" horiz-adv-x="586" />
<glyph unicode="&#x2006;" horiz-adv-x="391" />
<glyph unicode="&#x2007;" horiz-adv-x="391" />
<glyph unicode="&#x2008;" horiz-adv-x="293" />
<glyph unicode="&#x2009;" horiz-adv-x="469" />
<glyph unicode="&#x200a;" horiz-adv-x="130" />
<glyph unicode="&#x2010;" horiz-adv-x="667" d="M86 422v176h498v-176h-498z" />
<glyph unicode="&#x2011;" horiz-adv-x="667" d="M86 422v176h498v-176h-498z" />
<glyph unicode="&#x2012;" horiz-adv-x="667" d="M86 422v176h498v-176h-498z" />
<glyph unicode="&#x2013;" horiz-adv-x="1024" d="M0 436v148h1024v-148h-1024z" />
<glyph unicode="&#x2014;" horiz-adv-x="2048" d="M0 436v148h2048v-148h-2048z" />
<glyph unicode="&#x2018;" horiz-adv-x="507" d="M131 909v252q0 125 53 199q62 86 183 86v-115q-74 -15 -95 -55q-16 -29 -16 -115h106v-252h-231z" />
<glyph unicode="&#x2019;" horiz-adv-x="507" d="M143 885v114q75 15 97 58q14 28 14 114h-107v250h230v-250q0 -286 -234 -286z" />
<glyph unicode="&#x201a;" horiz-adv-x="507" d="M123 -172q76 16 96 57q17 34 17 115h-109v252h231v-252q0 -125 -53 -199q-62 -86 -182 -86v113z" />
<glyph unicode="&#x201c;" horiz-adv-x="894" d="M139 909v252q0 120 54 199q62 86 180 86v-115q-74 -15 -94 -57q-17 -31 -17 -113h107v-252h-230zM514 909v252q0 125 53 199q62 86 181 86v-115q-76 -15 -97 -55q-14 -25 -14 -115h106v-252h-229z" />
<glyph unicode="&#x201d;" horiz-adv-x="894" d="M150 885v114q73 14 96 58q16 29 16 114h-106v250h229v-250q0 -123 -53 -200q-65 -86 -182 -86zM524 885v114q76 15 97 56q16 32 16 116h-107v250h230v-250q0 -124 -55 -200q-62 -86 -181 -86z" />
<glyph unicode="&#x201e;" horiz-adv-x="894" d="M131 -172q76 12 96 57q15 30 15 115h-107v252h230v-252q0 -285 -234 -285v113zM506 -172q76 16 96 57q14 28 14 115h-106v252h229v-252q0 -285 -233 -285v113z" />
<glyph unicode="&#x2022;" horiz-adv-x="1208" d="M307 762q0 123 86 209q89 86 211 86q126 0 209 -86q86 -83 86 -209q0 -125 -86 -211t-211 -86q-123 0 -209 86q-86 89 -86 211z" />
<glyph unicode="&#x2026;" horiz-adv-x="2048" d="M315 0v252h238v-252h-238zM926 0v252h237v-252h-237zM1513 -8v252h238v-252h-238z" />
<glyph unicode="&#x202f;" horiz-adv-x="469" />
<glyph unicode="&#x2039;" horiz-adv-x="569" d="M66 506l262 311h180l-258 -311l258 -313h-180z" />
<glyph unicode="&#x203a;" horiz-adv-x="569" d="M61 193l258 313l-258 311h181l260 -311l-260 -313h-181z" />
<glyph unicode="&#x205f;" horiz-adv-x="586" />
<glyph unicode="&#x2122;" horiz-adv-x="1705" d="M242 1378v80h452v-80h-172v-458h-108v458h-172zM813 920v538h150l151 -385l141 385h150v-538h-98v444l-166 -444h-56l-174 444v-444h-98z" />
<glyph unicode="&#x25fc;" horiz-adv-x="1003" d="M0 0v1004h1004v-1004h-1004z" />
</font>
</defs>
</svg>
